<?xml version="1.0" encoding="UTF-8"?>
<svg id="Layer_1" xmlns="http://www.w3.org/2000/svg" viewBox="0 0 500 500">
  <defs>
    <style>
      .cls-1 {
        fill: #161616;
      }
    </style>
  </defs>
  <g>
    <path class="cls-1" d="M457.18,117.47c-11.18-21.2-29.19-33.99-51.7-40.88-26.06-7.98-52.5-7.23-79.03-2.93-26.28,4.26-51.33,12.58-75.7,23.13-1.77.45-3.41,1.15-4.79,2.39,1.87-.45,3.81-.6,5.43-1.74,31.9-10.11,64.6-14.79,98.03-13.92,8.19.21,16.49-.02,24.48,2.52,24.94,7.93,42.88,23.19,50.4,48.92,5.18,17.7,3.75,35.5-.75,53.12-7.17,28.03-20.99,52.77-38.16,75.75-29.89,40-67.1,71.82-110.03,96.99-37.72,22.11-77.71,37.9-121.82,41.29-16.89,1.3-33.62.18-49.86-5.06-23.03-7.44-39.96-21.57-48.11-44.9-3.74-10.72-5.93-21.99-3.69-33.17,7.88-39.44,23.79-75.54,46.71-108.58.33-.48,1.37-.91.52-1.98-21.86,25.43-40.58,52.76-53.21,83.94-8.39,20.71-13.81,42.04-12.72,64.6,1.52,31.54,15.2,55.8,43.35,71.08,16.06,8.72,33.54,12.28,51.61,13.15,33.32,1.6,65.27-5.24,96.47-16.27,29.37-10.39,56.91-24.49,83.05-41.38,1.79-1.16,30.07-21.13,30.82-21.7,2.44-1.84,72.56-67.2,92.65-98.59,18.17-28.38,32.1-58.49,35.29-92.59,1.73-18.51-.44-36.5-9.24-53.18Z"/>
    <path class="cls-1" d="M137.66,338.85c-25.57-6.86-40.32-26.12-40.28-52.52.02-12.66,3.12-24.67,7.84-36.3,9.43-23.25,23.98-43.07,41.13-61.12,2.67-2.81,5.41-5.55,8.12-8.33-.63-.2-.95-.11-1.17.09-22.67,21.28-42.19,44.98-55.75,73.18-8.18,17.02-13.81,34.8-13.27,53.93.7,24.72,11.65,43.21,34.32,54.05,10.59,5.07,21.93,7.21,33.58,7.79,19.58.97,38.61-2.19,57.29-7.81,37.84-11.39,71.35-30.76,101.73-55.71,26.39-21.67,49.04-46.64,65.5-76.79,10.73-19.66,18.42-40.32,17.75-63.15-.71-24.02-11.28-42.25-33.16-53.07-16.91-8.36-35.06-9.47-53.48-8.02-22.17,1.75-43.24,7.93-63.67,16.47-7.93,3.32-15.82,6.77-23.24,11.19-5.37,2.25-10.22,5.38-14.75,9.08,5.48-2.99,10.95-5.99,16.43-8.98,16.65-7.94,33.81-14.45,51.98-17.99,16.77-3.27,33.57-4.23,50.36-.02,26.22,6.58,41.45,26,41.35,53.01-.07,17.56-5.77,33.64-13.75,48.99-13.39,25.77-32.06,47.33-54.05,66.02-32.17,27.35-68.02,47.77-109.83,56.34-16.96,3.48-34.03,4.21-50.99-.33Z"/>
    <path class="cls-1" d="M160.45,165.53c3.48-14.55,11.4-23.1,26.29-25.49-14.91-3.52-23.12-12.49-26.22-27.56-2.87,15.26-11.18,24.27-26.19,27.49,15.32,1.73,23.15,10.66,26.12,25.56Z"/>
    <path class="cls-1" d="M457.74,70.53c.94-3.03,2.52-4.91,5.78-5.62-3.21-1.25-4.96-3.11-5.8-6.34-.66,3.36-2.63,5.04-5.66,6.39,3.32.52,4.7,2.48,5.68,5.56Z"/>
    <path class="cls-1" d="M335.32,195.31c.38-.68.55-.59-1.64-3.28-.48,1.23-1.59,1.8-2.44,2.74,1.56.35,2.44,3.5,4.09.54Z"/>
    <path class="cls-1" d="M154.77,179.35c2.68-.99,4.54-2.87,5.79-5.38-1.93,1.79-3.86,3.59-5.79,5.38Z"/>
    <path class="cls-1" d="M202.65,143.94c-.18-.22-.36-.44-.54-.66-1.64,1.05-3.29,2.11-4.93,3.16.14.22.28.45.42.67,1.69-1.06,3.37-2.12,5.06-3.18Z"/>
    <path class="cls-1" d="M170,166.05c-1.26,1.12-2.52,2.24-3.77,3.37-1.59,1.26-3.18,2.52-4.77,3.79.22.24.44.48.66.71,1.49-1.37,2.97-2.75,4.46-4.12,1.54-.8,2.8-1.9,3.43-3.74Z"/>
  </g>
  <g>
    <path class="cls-1" d="M160.45,165.53c3.48-14.55,11.4-23.1,26.29-25.49-14.91-3.52-23.12-12.49-26.22-27.56-2.87,15.26-11.18,24.27-26.19,27.49,15.32,1.73,23.15,10.66,26.12,25.56Z"/>
    <path class="cls-1" d="M410.21,387.75c-.92,5.22-3.88,7.47-7.85,8.93,4.79,1.33,6.05,2.54,7.88,7.36,2.76-5.24,3.24-5.7,8.24-7.48-4.32-1.16-6.82-3.91-8.27-8.81Z"/>
    <path class="cls-1" d="M457.74,70.53c.94-3.03,2.52-4.91,5.78-5.62-3.21-1.25-4.96-3.11-5.8-6.34-.66,3.36-2.63,5.04-5.66,6.39,3.32.52,4.7,2.48,5.68,5.56Z"/>
    <path class="cls-1" d="M335.32,195.31c.38-.68.55-.59-1.64-3.28-.48,1.23-1.59,1.8-2.44,2.74,1.56.35,2.44,3.5,4.09.54Z"/>
    <path class="cls-1" d="M154.77,179.35c2.68-.99,4.54-2.87,5.79-5.38-1.93,1.79-3.86,3.59-5.79,5.38Z"/>
    <path class="cls-1" d="M202.65,143.94c-.18-.22-.36-.44-.54-.66-1.64,1.05-3.29,2.11-4.93,3.16.14.22.28.45.42.67,1.69-1.06,3.37-2.12,5.06-3.18Z"/>
    <path class="cls-1" d="M170,166.05c-1.26,1.12-2.52,2.24-3.77,3.37-1.59,1.26-3.18,2.52-4.77,3.79.22.24.44.48.66.71,1.49-1.37,2.97-2.75,4.46-4.12,1.54-.8,2.8-1.9,3.43-3.74Z"/>
    <path class="cls-1" d="M198.51,331.73c-.37-.24-.8-.4-1.2-.6-9.78-7.34-18.58-15.64-25.48-25.84-5.45-8.05-9.66-16.68-12.65-25.92-.41-1.27-.83-2.59-.04-3.94,1.17-2.01,2.61-2.12,4.1-.51,2.56,2.76,4.67,1.67,6.41-.77,2.48-3.49,5.5-7.01,1.45-11.43-.84-.92-.51-2.16-.11-3.26,1.25-3.42.17-6.15-2.32-8.62-2.25-2.24-4.67-4.49-3.61-8.24.25-.89-.29-1.82-1.06-1.87-2.89-.16-4.04-3.69-7.49-3.34-1.69.17-1.05-2.58-.25-3.71.99-1.42,2-2.6,1.99-4.51,0-1.54,1.09-1.26,1.76-.39,1.16,1.51,1.4,3.29,1.2,5.17-.11,1.05-.74,2.47.7,2.99,1.51.54,2.57-.62,3.46-1.65.8-.93,1.97-2.26.73-3.24-1.82-1.43-1.62-2.68-.62-4.33.32-.52.63-1.73-.26-1.56-4.89.95-1.19-2.02-1.25-2.94-.07-1.19,1.42-2.59-.72-3.32-.82-.28-.62-.73-.37-1.29,1.08-2.34,1.8-4.94,3.29-6.97,1.35-1.83,1.42-3.34.25-4.91-1-1.34-.83-2.38-.05-3.67,1.94-3.2,3.8-6.44,5.69-9.66,2.81-3.41,5.65-6.81,8.42-10.25,1.19-1.48,2.24-2.05,3.8-.36,1.06,1.16,2.37,2.19,4.14.86,1.03-.77,1.97-.29,2.55.74.67,1.19,1.28,2.22,2.78,2.77,1.56.57-.53,1.63-.08,2.52.09.07.17.15.26.23-.09-.08-.17-.15-.26-.23-2.62,4.01-4.06,8.57-5.88,12.95-.57,1.38-1.05,2.55-2.84,2.15-.99-.38-1.88.08-1.01.89,1.58,1.47.92,2.82.5,4.33-2.2,7.77-3.6,15.69-4.34,23.73-.11,1.15-.13,2.27.65,3.24.36,1.76-.03,2.76-2.14,2.84-2.47.1-4.92.57-7.37,1.12,2.46,0,4.92.09,7.38-.03,1.61-.08,2.21.42,2.21,2.09.01,10.77,1.89,21.24,5.2,31.46.69,2.13-.18,2.66-2,2.74-1.7.07-3.39.17-5.37.27.32.23.42.36.49.35,6.43-1.35,9.7,1.61,11.12,7.7.53,2.27,1.9,4.36,3.02,6.46.86,1.62,1.72,3,.46,4.97-1.11,1.73.24,3.31,1.43,4.5,1.43,1.43,3.09,2.61,4.85,4.06-2.19,1.73-4.1.7-5.59,1.71.4.09.74.26,1.05.21,3.54-.62,5.54.52,6.27,4.36.55,2.89,3.56,3.66,5.99,4.5,3.22,1.12,5.34,2.94,6.18,6.42.53,2.19,2.1,3.9,4.47,4.57h0s0,0,0,0c1.51.39,2.76,1.03,3.44,2.26,5.71-2.17,11.31-4.56,16.79-7.17-.23-1.07-.41-2.14-.32-3.24.17-2.15.94-4.13,3.18-4.81,3.35-1.01,5.41-3.07,6.33-6.43.25-.91.68-2.01,2.05-1.88.84,1.68,1.7,3.35,3.35,4.92,0-2.58-1.97-4.17-2.13-6.33,1.7-1.29,1.53-4.32,4.29-4.63h0c11.14-1.96,21.95-5.17,32.7-8.61,2.79-2.18,5.54-4.42,8.27-6.7-.4-9.33-1.24-18.41-2.78-27.41-.32-1.85.34-2.65,2-3.23,2.99-1.05,5.92-2.3,8.87-3.47h0c1.73-.69,3.46-1.39,5.19-2.08-2.17-.21-4.07.38-5.83,1.45-.98.25-1.96.51-3.45.89,1.21-4.64,2.32-8.98,3.48-13.3.23-.88.58-1.78,1.66-1.94,2.85-.43,2.75-2.27,2.01-4.3-.82-2.26-.82-4.41.33-6.56.88-1.64.59-3.33-.15-4.92-1.01-2.16-2.16-4.25-3.21-6.39-1.1-2.25-1.65-4.43.36-6.59,1.54-1.66,1.2-3.55.13-5.36-1.29-2.18-1.95-4.2.03-6.52,1.42-1.67.15-3.49-.82-5-1.92-3-1.04-5.39,1.46-7.46,2.76-2.29,4.38-2,6.2,1.09.46.78.77,2.03,1.64,2.04,2.75.03,5.12.21,5.53,3.75.08.72,1.13.48,1.75.11,1.34-.79,2.25-1.89,2.4-3.5.14-1.55-.57-2.74-1.88-3.35-2.78-1.28-4.28-3.97-6.42-5.72-3.84-3.13-7.69-6.29-11.61-9.32-2.33-1.8-5.79-2.38-8.51-4.08-1.58-.99-3.27-1.12-4.68.32-1.72,1.75-3.42,1.51-5.13.14-2.28-1.84-4.58-2.34-7.13-.51-.77.55-1.75.46-2.65.32-2-.32-2.73.42-3.98,2.27-1.49,2.2-4.91,3.1-7.54,4.49-.14.07-.75-.49-.97-.86-1.69-2.88-3.42-2.41-5.22-.13-1.27.55-2.49.1-3.63-.33-.73-.28-1.25-.53-1.65.3-.8,1.64-1.94,1.83-3.28.72-1.12-.93-2.57-1.87-1.3-3.62,1.16-1.6-1.16-3.58.8-5.29.51-.45-1.35-1.12-1.84-.4-.92,1.36-2.34.99-3.74,1.34.79,1.35,1.53,2.45,2.1,3.64.33.7.55,2.11-.1,2.16-3.18.24-1.54,2.52-1.9,3.95-.34,1.35-.21,3.02-2.46,2.97-1.25-.03-1.88,1.16-2.27,2.25-.13.37-.04.89.13,1.25.09.2.78.38.83.31,1.7-2.37,4.1,2.66,5.7-.56.67-1.35,1.83-1.81,3.11-1.04,3.26,1.96,6.63,3.8,9.18,6.7,2.22,2.53,1.29,4.36-2.03,5.18-5.49,1.35-10.9,3.02-16.35,4.57-.65.18-1.28.49-2.27.04,1.4-2.29-1.08-4.66.39-7.29.71-1.29-1.44-1.55-2.36-2.26-2.77-2.15-4.55-2.99-5.55,1.66-.3,1.4-1.78,2.47-.83,4.32.35.69-.43,1.6-1.28,1.7-1.39.16-.84-1.02-.91-1.68-.38-3.41.97-6.43,2.11-9.52.91-2.47,3.63-1.4,5.42-3.1-4.35,1.48-5.18-2.09-6.56-4.29-1.39-2.22,1.01-3.74,2.31-5.1,1.07-1.12,2.79.04,4.25-.15,1.67-.22,2.22.82,2.28,2.56.05,1.35,1.82,1.78,2.78,2.63.42.37,1.37-.62,1.68-1.36.56-1.37.04-2.45-1.19-3.18-1.45-.87-2.17-2.24-2.84-3.72-.36-.79-.96-1.6-1.66-2.08-1.47-.99-7.86.51-8.55,2.18-1.06,2.53-2.96,3.88-5.25,5.04-.66.34-3.05.91-.21,1.97.86.32.1,1.22-.25,1.71-.92,1.32-2.12,2.34-3.6,3.04-.8.37-1.97.9-1.37,1.92.45.76,1.69.45,2.55.18.52-.16.95-.6,1.44-.88.99-.56,2.02-2.24,3.09-.96.9,1.09-.52,2.22-1.32,3.16-.42.5-.75,1.08-1.15,1.67,4.06.98,5.81,4.55,4.39,8.94-.48-.63-.86-1.17-1.29-1.68-.66-.77-1.31-1.78-2.51-1.31-1.12.44-.61,1.55-.66,2.4-.09,1.28.44,2.71-1.54,3.28-1,.28-.76,1.62-.54,2.44.7,2.52-.75,3.07-2.75,3.46-5.9,1.15-11.78,2.4-17.67,3.61h0s0,0,0,0c-2.64.42-5.28.83-8.41,1.32,1.8-5.07,3.45-9.7,5.1-14.33,0,0,0,0,0,0,.53-.82,1.07-1.64,1.65-2.54,1.52,1.33,1.02,3.09,1.49,4.54.42,1.29,1.28,2.4,2.34,1.31,1.94-1.99,5.13-3.18,4.91-6.83-.12-1.98.44-3.78,2.17-5.09,1.41-1.07,1.39-2.52.54-3.95-.72-1.2-.4-2.58-.64-3.71-1.13-5.3,3.81-7.39,6.16-9.27,2.96-2.37,6.16-4.16,8.3-7.58.66-1.05,2.82-1.25,4.34-1.68,4.69-1.31,9.41-2.5,14.27-2.99,0,0,0,0,0,0,0,0,0,0,0,0,7.91-.91,15.86-.57,23.8-.81-8.14-1.29-16.28-1.71-24.41-.19-.25-.03-.54.08-.83.17-.19.04-.38.07-.57.11-28.51,4.11-51.34,17.63-68.17,41.11-9.16,12.24-14.95,25.98-17.18,41.03-5.74,38.72,6.68,70.64,36.71,95.7,2.77,2.31,5.64,4.57,8.97,6.12h0c.62.4,1.25.79,1.88,1.18,1.56-.41,3.13-.81,4.67-1.25-1.98-1.13-3.94-2.33-5.88-3.6ZM233.08,275.16c-.78.97-1.82.79-2.82.5-1.52-.44-3.06-.52-4.14.71-2.65,3-5.96,4.67-9.79,5.43-1.03-2.01-2.4-.76-3.46-.03-2.66,1.83-3.54,5.61-2.1,9.05-2.58-.5-4.8.01-7.09,1.06-2.91,1.33-6.44-.37-7.94-3.25-1.27-2.42-2.25-4.98-3.39-7.46-.93-2.03-.41-2.83,1.85-3.07,5.77-.61,11.55-1.07,17.28-1.99.96-.15,2.19.12,2.75-.88,4.51.39,8.83-.94,13.24-1.5.9-.12,1.78-.37,2.68-.51,1-.15,2.05-.52,2.88.39.43.47.47,1.05.07,1.55ZM292.55,251.47c1.11-3.44,1.93-7.03,4.52-9.79.5-.53,1.16-.69,2.16-.67,1.61.12,1.65,1.41,1.12,2.66-1.19,2.82-3.2,5.22-4.22,8.16-.38,1.11-1.74,1.05-2.68,1.17-.78.1-1.08-1-.91-1.53ZM279.62,268.15c2.92-.77,5.51-3.61,8.95-4.37,1.52-.33,2.17-1.89,2.35-3.5-.04-.42.64.11.21-.04-.09-.03-.14.07-.11.31.95,7.44,2.14,14.85,2.67,22.35.19,2.68-.32,3.99-2.94,4.71-10.2,2.81-20.41,5.6-30.73,7.96-1.7.39-3.6.4-4.81,1.91-.39-.96-.62-1.94-.49-3.01.23-1.79-.32-3.43-1.48-4.75-1.87-2.12-2.91-4.32-1.54-7.1.14-.29.12-.67.07-1.01-.25-1.97-6.46-7.18-8.49-7.12-.57.02-1.13.15-1.7.09-1.53-.17-3.33-.63-3.42-2.21-.09-1.54,1.89-1.26,2.99-1.47,4.8-.96,9.55-2.08,14.27-3.33,1.26-.33,2.77-.37,3.32-1.96.04.09.08.19.14.28,2.29,1.1,4.3-1.06,6.75-.62-.81,1.82-2.49,1.55-3.79,1.91-3.7,1-4.34,1.72-3.91,5.41.2,1.7-.47,2.81-1.56,3.92-.88.91-1.8,1.99-.74,3.27,1.01,1.23,2.43,1.13,3.76.56,1.78-.77,2.74-2.36,3.55-4,1.33-2.67,3.04-4.07,6.36-4.71,3.45-.66,6.71-2.53,10.32-3.48ZM258.49,193.8c-.03-.07-.03-.15-.02-.23-.01.08,0,.16.02.23ZM251.9,244.46c-.75,1.84-1.14,3.72-.36,5.64.48,1.18,1.14,2.37,2.68,2.17,1.36-.17,1.82-1.34,1.89-2.51.11-1.7.8-3.09,1.79-4.38.94.54,1.93.31,2.9-.07,1.24-.48,2.43-.43,3.64.09.85.36,1.88.81,2.63.38,3.05-1.73,5.63-.16,8.33.89.42.16.9.2,1.27.48,1.57,1.19.65,9.85-1.23,10.41-2.7.8-5.29,2.3-8.25-.19-2.37-1.99-4.79-.6-5.33,2.68-.22,1.38-1.33,1.74-2.03,2.57-.02.04-.05.08-.07.13-2.02-.75-3.99.08-5.92.5-4.89,1.06-9.71,2.39-14.59,3.48-2.21.49-3.34-.03-4.02-2.27-2.6-8.61-4.62-17.35-6.21-26.2-.44-2.42.36-3.71,2.79-4.03.45-.06-.11-.05.33-.06,3.53-.09,7.31-3.54,10.3-1.1,2.82,2.3,5.96,4.1,8.71,6.43,1.69,1.43,1.5,3.16.76,4.97ZM247.53,192.97c.9-.26,2.2-1.23,2.62.07.38,1.15.2,2.99-1.3,3.49-2.19.73-2.62,1.95-2.28,4.08.32,1.97-.96,3.46-2.84,3.51-2.39.07-1.91-2.06-1.86-3.54.08-2.12.14-4.14-3.02-5.04,3.28-.98,5.97-1.79,8.67-2.57ZM238.83,224.32c.98,1.58,1.72,2.73,3.87,3.59-5,1.2-9.51,2.25-14,3.37-1.5.37-1.78-.53-1.89-1.63-.26-2.48-.5-4.97-.71-7.46-.26-3.02,1.9-5.81,4.48-4.71,3.21,1.37,6.45,3.93,8.26,6.85ZM226.85,206.87c1.65.19,5.91,3.18,5.85,4.28-.07,1.35-1.13,1.17-2.27,1.24-1.73-1-4.65-.73-5.04-3.86-.12-.99.08-1.81,1.45-1.65ZM224.7,238.71c1.34,9.25,3.54,18.3,6.16,27.26.59,2.01-.37,2.69-2.1,3-4.14.75-8.2,1.9-12.36,2.55-1.32.21-2.66.38-3.59,1.51-1.34-1.14-2.89-.7-4.38-.45-4.93.83-9.9,1.37-14.82,2.24-2.49.44-3.78-.42-4.52-2.82-2.85-9.16-4.3-18.55-4.94-28.1-.14-2.12,1.1-2.4,2.7-2.6,8-1,16.03-1.68,23.97-3.13,1.24-.23,2.76-.06,3.54-1.36,0,0,0,0,.02,0,2.41.82,4.73-.11,7.06-.46,2.04-.31,2.98.38,3.26,2.35ZM193.73,205.43c1.22,0,2.47-.29,3.71-.41.55-.09,1.09-.21,1.48-.56.23.06.46.11.68.19,2.6-.16,5.09-1.01,7.69-1.28,1.63-.17,2.63.07,2.85,1.9.24,2.07,1.71,2.57,3.47,2.26,1.75-.3,3.44-.15,4.97.6,1.15.57,3.57-.99,3.35,2.24-.11,1.63.33,2.87-1.47,3.88-1.43.81-.97,2.36.12,3.14,2.4,1.72,2.68,4.1,2.42,6.64-.24,2.33,1.71,4.89-.11,6.88-1.56,1.72-4.26,1.22-6.4,1.88-.88.27-1.73.56-2.39,1.24,0,0,0,0,0,.01-1.33-1.07-2.84-.42-4.24-.14-7.36,1.47-14.78,2.57-22.21,3.66-2.51.37-3.44-.07-3.23-2.92.31-4.2.64-8.38,1.23-12.54.6-3.92,1.6-7.75,2.44-11.62.69-3.19,2.18-5.06,5.66-5.07Z"/>
    <path class="cls-1" d="M264.85,158.34c.8-.66,1.62-.93,2.22.23.87,1.67,2.24,2.08,4,1.7-1.52-2.92-3.78-4.15-7.1-3.87-1.46.12-2.94-.65-3.22,1.68-.23,1.98-2.7.03-3.63,2.12-.97,2.16-1.71-1.64-3.63-.85.54,1.86,2.13,3.42,1.03,5.6-.39.77,1.08,1.27,1.72,1.01,3.58-1.42,7.33.59,10.9-.65.66-.23,1.67.36,1.84-.87.16-1.18-.39-1.99-1.43-2.42-.93-.38-2.04-.39-2.7-1.3-.57-.78-.96-1.6-.01-2.38Z"/>
    <path class="cls-1" d="M237.15,157.05c-1.3-.52-2.21.25-3.25.47-1.67.34-3.43,1.64-5.19-.31-.53-.59-2.13-.26-3.24-.24-.62,0-1.25.83-.83,1.02,1.77.81,2.63,3.09,5.06,2.89,2.95-.24,5.49-1.11,7.45-3.83Z"/>
    <path class="cls-1" d="M180.39,194.12c.77-.36,1.61-1,.78-1.75-1.69-1.51.2-2.62.34-4.5-2.42.81-3.56,2.55-5.02,3.82-.71.62-.56,1.45.13,2.07,1.15,1.04,2.45.98,3.78.36Z"/>
    <path class="cls-1" d="M257.5,153.3c-1.78.46-3.52.39-5.28.28-.86-.05-1.6.43-1.64,1.33-.05,1.11,1.08,1.36,1.66,1.12,1.78-.74,4.9,1.22,5.26-2.74Z"/>
    <path class="cls-1" d="M238.93,160.43c-1.04-.88-1.97,1.19-4.12.71,1.9,1.69,3.08,2.74,4.57,4.06.2-1.96.75-3.76-.45-4.77Z"/>
    <path class="cls-1" d="M244.49,156.47c.46-.37.62-1.42.54-1.41-1.82.26-3.2-2.68-5.49-.49,1.74.69,2.32,3.99,4.96,1.9Z"/>
    <path class="cls-1" d="M241.23,160.81c.44.29.93.1,1.02-.38.24-1.23-.61-1.72-1.52-2.23-.79,1.18-.46,1.99.5,2.61Z"/>
    <path class="cls-1" d="M249.16,261.31c1.52-1.69,3.84-1.87,5.15-3.23,1.64-1.7,2.62-1.04,4.07-.09-1.36-3.67-2.08-3.99-4.59-1.89-1.85,1.54-4.18,1.64-6.22,2.57-.88.4-2.87-.05-2.2,1.67.59,1.52,2.92,1.93,3.79.97Z"/>
    <path class="cls-1" d="M241.49,261.24c.08-.82-.74-1.16-1.46-.9-1.15.43-2.43.86-2.96,2.08-.33.77.47,1.25,1.05,1.49,2.05.85,4.15,1.57,7.1.63-1.89-1.13-3.95-.98-3.73-3.31Z"/>
    <path class="cls-1" d="M211.4,214.19c.98-1.44,2.06-1.98,3.62-.79.32.24.92.28,1.13-.3.47-1.31-.33-2.42-.71-3.57-.28-.84-.99-1.05-1.94-.84-1.78.4-3.96,2.85-3.95,4.95.05.12.12.64.41.89.53.45,1.12.12,1.44-.35Z"/>
  </g>
</svg>